<svg width="32" height="8" viewBox="0 0 32 8" fill="none" xmlns="http://www.w3.org/2000/svg">
<path d="M2.07901 1.36699V3.61099H4.71901V4.63399H2.07901V6.97699H5.04901V7.99999H0.825012V0.343994H5.04901V1.36699H2.07901Z" fill="#FF673E"/>
<path d="M12.9626 0.354994L10.0916 7.99999H8.63957L5.75757 0.354994H7.09957L9.36557 6.713L11.6426 0.354994H12.9626Z" fill="#FF673E"/>
<path d="M15.0453 1.36699V3.61099H17.6853V4.63399H15.0453V6.97699H18.0153V7.99999H13.7913V0.343994H18.0153V1.36699H15.0453Z" fill="#FF673E"/>
<path d="M25.6208 7.99999H24.3668L20.5938 2.29099V7.99999H19.3398V0.343994H20.5938L24.3668 6.04199V0.343994H25.6208V7.99999Z" fill="#FF673E"/>
<path d="M31.9866 0.354994V1.37799H29.9516V7.99999H28.6976V1.37799H26.6516V0.354994H31.9866Z" fill="#FF673E"/>
</svg>
