<svg width="20" height="20" viewBox="0 0 20 20" fill="none" xmlns="http://www.w3.org/2000/svg">
<path d="M10 20C15.5228 20 20 15.5228 20 10C20 4.47715 15.5228 0 10 0C4.47715 0 0 4.47715 0 10C0 15.5228 4.47715 20 10 20Z" fill="#0740E4"/>
<path fill-rule="evenodd" clip-rule="evenodd" d="M13.2773 7.44526C13.5376 7.18491 13.9598 7.18491 14.2201 7.44526C14.4805 7.70561 14.4805 8.12772 14.2201 8.38807L9.2201 13.3881C8.95975 13.6484 8.53764 13.6484 8.27729 13.3881L5.77729 10.8881C5.51694 10.6277 5.51694 10.2056 5.77729 9.94526C6.03764 9.68491 6.45975 9.68491 6.7201 9.94526L8.7487 11.9739L13.2773 7.44526Z" fill="white"/>
</svg>
