<svg width="16" height="16" viewBox="0 0 16 16" fill="none" xmlns="http://www.w3.org/2000/svg">
<path fill-rule="evenodd" clip-rule="evenodd" d="M5.16144 4.1635C4.94619 4.38125 4.94619 4.73429 5.16144 4.95205L8.66638 8.49758L5.1615 12.0475C4.94638 12.2654 4.94638 12.6187 5.1615 12.8366C5.37663 13.0545 5.72542 13.0545 5.94055 12.8366L9.78605 8.94163C9.80428 8.92734 9.82182 8.91172 9.83856 8.89479C10.0331 8.69804 10.0518 8.39084 9.89484 8.17279C9.87738 8.14805 9.85769 8.12443 9.83576 8.10222C9.82844 8.09481 9.82096 8.08764 9.81334 8.08073L5.94096 4.1635C5.72571 3.94574 5.3767 3.94574 5.16144 4.1635Z" fill="#A7A7A7"/>
</svg>
