<svg width="33" height="18" viewBox="0 0 33 18" fill="none" xmlns="http://www.w3.org/2000/svg">
<rect width="33" height="18" rx="2" fill="black"/>
<path d="M10.1004 8.87183C10.4927 8.95728 10.8079 9.15775 11.0458 9.47324C11.2838 9.78216 11.4028 10.1371 11.4028 10.538C11.4028 11.1164 11.2034 11.5765 10.8047 11.9183C10.4123 12.2535 9.86237 12.4211 9.15486 12.4211H6V5.5H9.04873C9.73695 5.5 10.274 5.66103 10.6599 5.9831C11.0523 6.30516 11.2485 6.74225 11.2485 7.29437C11.2485 7.70188 11.1423 8.04038 10.9301 8.30986C10.7243 8.57934 10.4477 8.76667 10.1004 8.87183ZM7.64979 8.3H8.73035C9.0005 8.3 9.20632 8.24085 9.34782 8.12254C9.49575 7.99765 9.56972 7.8169 9.56972 7.58028C9.56972 7.34366 9.49575 7.16291 9.34782 7.03803C9.20632 6.91315 9.0005 6.8507 8.73035 6.8507H7.64979V8.3ZM8.86542 11.0606C9.142 11.0606 9.35425 10.9981 9.50219 10.8732C9.65655 10.7418 9.73374 10.5545 9.73374 10.3113C9.73374 10.0681 9.65334 9.87747 9.49254 9.73944C9.33817 9.60141 9.1227 9.53239 8.84613 9.53239H7.64979V11.0606H8.86542Z" fill="white"/>
<path d="M17.2415 9.58169C17.2415 9.73944 17.2319 9.90376 17.2126 10.0746H13.4789C13.5046 10.4164 13.6107 10.6793 13.7972 10.8634C13.9902 11.0408 14.225 11.1296 14.5015 11.1296C14.9132 11.1296 15.1994 10.9521 15.3602 10.5972H17.1161C17.0261 10.9587 16.862 11.284 16.6241 11.5732C16.3925 11.8624 16.0999 12.0892 15.7461 12.2535C15.3924 12.4178 14.9968 12.5 14.5594 12.5C14.032 12.5 13.5625 12.385 13.1508 12.1549C12.7392 11.9249 12.4176 11.5962 12.186 11.169C11.9545 10.7418 11.8387 10.2423 11.8387 9.67042C11.8387 9.09859 11.9513 8.59906 12.1764 8.17183C12.4079 7.7446 12.7295 7.41596 13.1412 7.18592C13.5528 6.95587 14.0256 6.84085 14.5594 6.84085C15.0804 6.84085 15.5435 6.95258 15.9487 7.17606C16.3539 7.39953 16.6691 7.71831 16.8942 8.13239C17.1258 8.54648 17.2415 9.02958 17.2415 9.58169ZM15.5532 9.13803C15.5532 8.84883 15.4567 8.61878 15.2637 8.44789C15.0708 8.277 14.8296 8.19155 14.5401 8.19155C14.2635 8.19155 14.0288 8.27371 13.8358 8.43803C13.6493 8.60235 13.5335 8.83568 13.4885 9.13803H15.5532Z" fill="white"/>
<path d="M20.9194 10.9915V12.4211H20.08C19.4819 12.4211 19.0156 12.2732 18.6811 11.9775C18.3466 11.6751 18.1794 11.1854 18.1794 10.5085V8.31972H17.5234V6.91972H18.1794V5.57887H19.8292V6.91972H20.9098V8.31972H19.8292V10.5282C19.8292 10.6925 19.8678 10.8108 19.945 10.8831C20.0222 10.9554 20.1508 10.9915 20.3309 10.9915H20.9194Z" fill="white"/>
<path d="M21.3174 9.66056C21.3174 9.09531 21.4203 8.59906 21.6261 8.17183C21.8384 7.7446 22.1246 7.41596 22.4848 7.18592C22.845 6.95587 23.247 6.84085 23.6908 6.84085C24.0703 6.84085 24.4015 6.91972 24.6845 7.07746C24.9739 7.23521 25.1958 7.44225 25.3502 7.69859V6.91972H27V12.4211H25.3502V11.6423C25.1894 11.8986 24.9643 12.1056 24.6749 12.2634C24.3919 12.4211 24.0606 12.5 23.6811 12.5C23.2438 12.5 22.845 12.385 22.4848 12.1549C22.1246 11.9183 21.8384 11.5864 21.6261 11.1592C21.4203 10.7254 21.3174 10.2258 21.3174 9.66056ZM25.3502 9.67042C25.3502 9.24977 25.2344 8.91784 25.0029 8.67465C24.7778 8.43146 24.5012 8.30986 24.1732 8.30986C23.8451 8.30986 23.5653 8.43146 23.3338 8.67465C23.1087 8.91127 22.9961 9.23991 22.9961 9.66056C22.9961 10.0812 23.1087 10.4164 23.3338 10.6662C23.5653 10.9094 23.8451 11.031 24.1732 11.031C24.5012 11.031 24.7778 10.9094 25.0029 10.6662C25.2344 10.423 25.3502 10.0911 25.3502 9.67042Z" fill="white"/>
</svg>
