<svg width="24" height="24" viewBox="0 0 24 24" fill="none" xmlns="http://www.w3.org/2000/svg">
<path d="M11.8886 13.483C11.8916 12.7059 12.2504 12.1471 12.9802 11.8178C13.5141 11.5761 13.7909 11.0625 13.6887 10.5137C13.5926 9.99895 13.1385 9.60632 12.5776 9.55155C11.9755 9.49494 11.3795 9.95271 11.2937 10.5385C11.283 10.6125 11.2769 10.6865 11.2712 10.7605C11.2461 11.0999 10.9837 11.3337 10.6398 11.323C10.3088 11.3126 10.0617 11.0566 10.0606 10.7235C10.056 9.53307 10.9959 8.52133 12.234 8.38589C13.4424 8.25341 14.5982 9.04718 14.8651 10.1943C15.1252 11.3086 14.5707 12.4106 13.5019 12.8876C13.2262 13.0105 13.0943 13.2051 13.1015 13.4956C13.1038 13.574 13.1038 13.6525 13.0992 13.7309C13.0902 13.8801 13.0228 14.0203 12.9109 14.1229C12.799 14.2256 12.651 14.2829 12.4971 14.2833C12.3431 14.2837 12.1948 14.227 12.0823 14.1249C11.9699 14.0229 11.9018 13.883 11.892 13.7339C11.8844 13.6488 11.8886 13.5655 11.8886 13.483Z" fill="#A7A7A7"/>
<path d="M13.2865 15.7907C13.2864 15.9462 13.2401 16.0983 13.1536 16.2276C13.0671 16.3569 12.9442 16.4577 12.8005 16.5172C12.6567 16.5767 12.4985 16.5922 12.3459 16.5618C12.1933 16.5314 12.0532 16.4564 11.9432 16.3463C11.8332 16.2363 11.7583 16.0961 11.728 15.9435C11.6976 15.7908 11.7133 15.6327 11.7728 15.4889C11.8324 15.3452 11.9332 15.2223 12.0626 15.1359C12.192 15.0495 12.3441 15.0033 12.4997 15.0033C12.6034 15.0022 12.7062 15.0218 12.8022 15.061C12.8982 15.1002 12.9854 15.1581 13.0587 15.2315C13.132 15.3048 13.1899 15.392 13.229 15.4881C13.2681 15.5841 13.2877 15.687 13.2865 15.7907V15.7907Z" fill="#A7A7A7"/>
<path fill-rule="evenodd" clip-rule="evenodd" d="M12.5 19.5833C16.412 19.5833 19.5833 16.412 19.5833 12.5C19.5833 8.58798 16.412 5.41667 12.5 5.41667C8.58798 5.41667 5.41667 8.58798 5.41667 12.5C5.41667 16.412 8.58798 19.5833 12.5 19.5833ZM12.5 21C17.1944 21 21 17.1944 21 12.5C21 7.80558 17.1944 4 12.5 4C7.80558 4 4 7.80558 4 12.5C4 17.1944 7.80558 21 12.5 21Z" fill="#A7A7A7"/>
</svg>
