<svg width="16" height="16" viewBox="0 0 16 16" fill="none" xmlns="http://www.w3.org/2000/svg">
<g clip-path="url(#clip0_642_33990)">
<path d="M12.3596 9.32783C11.9882 8.96312 11.5546 8.81926 11.0683 8.89963C10.6455 8.96953 10.3449 9.2272 10.1565 9.41496C9.85898 9.70977 9.58983 9.97757 9.32068 10.2521C9.25314 10.2129 9.1856 10.1761 9.11806 10.1403C9.0127 10.0836 8.91375 10.0302 8.8192 9.97149C8.1931 9.57233 7.6116 9.08064 7.04088 8.46906C6.58094 7.97636 6.06425 7.37492 5.71372 6.64751C5.77045 6.59145 5.82787 6.5354 5.88494 6.47866C6.16388 6.20546 6.4526 5.92315 6.7204 5.62631C7.24924 5.03905 7.24484 4.2306 6.70925 3.66023C6.07404 2.98483 5.49355 2.39655 4.93094 1.86603C4.25554 1.22609 3.49031 1.21393 2.78114 1.83226C2.47721 2.09634 2.19556 2.38777 1.92237 2.66942C1.83794 2.75654 1.75352 2.84333 1.66909 2.92944C1.24055 3.3644 1.01599 3.91586 1.00113 4.5683C0.987958 5.14948 1.08993 5.74248 1.31315 6.38208C2.06251 8.52985 3.38866 10.4254 5.36724 12.177C6.23344 12.9443 7.24351 13.6136 8.36906 14.1661C9.15623 14.5524 9.82115 14.7884 10.4655 14.909C10.5952 14.9333 10.7259 14.9536 10.8525 14.9732L10.9774 14.9927C11.0209 14.9994 11.0648 15.0028 11.1088 15.0029H11.4823C11.5506 15.002 11.6185 14.9936 11.6849 14.9779C12.18 14.9188 12.5866 14.7415 12.8939 14.4507C13.3086 14.0583 13.7459 13.6379 14.1366 13.1877C14.7512 12.4786 14.7137 11.6809 14.0336 10.9971C13.472 10.4324 12.9223 9.88065 12.3596 9.32783Z" fill="#939393"/>
<path d="M11.6686 7.4489C11.494 7.4489 11.3265 7.37952 11.203 7.25602C11.0795 7.13253 11.0101 6.96503 11.0101 6.79038C11.0097 6.34503 10.8325 5.91805 10.5176 5.60314C10.2027 5.28823 9.77574 5.11111 9.33039 5.11067C9.15574 5.11067 8.98824 5.04129 8.86475 4.91779C8.74125 4.7943 8.67188 4.6268 8.67188 4.45215C8.67188 4.27751 8.74125 4.11001 8.86475 3.98651C8.98824 3.86302 9.15574 3.79364 9.33039 3.79364C10.1249 3.79453 10.8866 4.11055 11.4484 4.67235C12.0102 5.23416 12.3262 5.99587 12.3271 6.79038C12.3271 6.96503 12.2577 7.13253 12.1343 7.25602C12.0108 7.37952 11.8433 7.4489 11.6686 7.4489Z" fill="#939393"/>
<path d="M14.3412 7.27298C14.1665 7.27298 13.999 7.2036 13.8755 7.08011C13.752 6.95661 13.6826 6.78912 13.6826 6.61447C13.6815 5.47498 13.2284 4.38248 12.4227 3.57668C11.617 2.77088 10.5246 2.31757 9.38508 2.31623C9.21043 2.31623 9.04293 2.24686 8.91944 2.12336C8.79594 1.99986 8.72656 1.83237 8.72656 1.65772C8.72656 1.48307 8.79594 1.31558 8.91944 1.19208C9.04293 1.06859 9.21043 0.999207 9.38508 0.999207C12.4808 0.999207 14.9987 3.51844 14.9987 6.61447C14.9987 6.78894 14.9294 6.95629 14.8062 7.07975C14.6829 7.20322 14.5156 7.27272 14.3412 7.27298Z" fill="#939393"/>
</g>
<defs>
<clipPath id="clip0_642_33990">
<rect width="14" height="14.002" fill="white" transform="translate(1 0.999878)"/>
</clipPath>
</defs>
</svg>
