<svg width="17" height="17" viewBox="0 0 17 17" fill="none" xmlns="http://www.w3.org/2000/svg">
<path d="M7.88855 9.48301C7.8916 8.7059 8.25041 8.14712 8.98025 7.81777C9.51408 7.57612 9.79092 7.06248 9.68873 6.51369C9.59264 5.99895 9.13851 5.60632 8.5776 5.55155C7.9755 5.49494 7.37952 5.95271 7.29372 6.5385C7.28304 6.61251 7.27695 6.68652 7.27123 6.76053C7.24606 7.09987 6.9837 7.33373 6.63976 7.323C6.30878 7.31264 6.06171 7.05658 6.06056 6.72353C6.05599 5.53307 6.99592 4.52133 8.23404 4.38589C9.44242 4.25341 10.5982 5.04718 10.8651 6.19434C11.1252 7.30857 10.5707 8.4106 9.50191 8.8876C9.22622 9.01045 9.09428 9.20509 9.10153 9.49558C9.10382 9.57403 9.1038 9.6525 9.09922 9.73095C9.09015 9.88011 9.0228 10.0203 8.91091 10.1229C8.79902 10.2256 8.65101 10.2829 8.49705 10.2833C8.34309 10.2837 8.19477 10.227 8.08234 10.1249C7.96991 10.0229 7.90183 9.88301 7.89198 9.73389C7.88435 9.64878 7.88855 9.56553 7.88855 9.48301Z" fill="#A7A7A7"/>
<path d="M9.28649 11.7907C9.28639 11.9462 9.24015 12.0983 9.15364 12.2276C9.06712 12.3569 8.94423 12.4577 8.80045 12.5172C8.65668 12.5767 8.49847 12.5922 8.34588 12.5618C8.1933 12.5314 8.05315 12.4564 7.94317 12.3463C7.83319 12.2363 7.75828 12.0961 7.72797 11.9435C7.69765 11.7908 7.71328 11.6327 7.77285 11.4889C7.83241 11.3452 7.93323 11.2223 8.06261 11.1359C8.19198 11.0495 8.34411 11.0033 8.4997 11.0033C8.60338 11.0022 8.70624 11.0218 8.80224 11.061C8.89824 11.1002 8.9854 11.1581 9.0587 11.2315C9.13199 11.3048 9.18991 11.392 9.22902 11.4881C9.26813 11.5841 9.28768 11.687 9.28649 11.7907Z" fill="#A7A7A7"/>
<path fill-rule="evenodd" clip-rule="evenodd" d="M8.5 15.5833C12.412 15.5833 15.5833 12.412 15.5833 8.5C15.5833 4.58798 12.412 1.41667 8.5 1.41667C4.58798 1.41667 1.41667 4.58798 1.41667 8.5C1.41667 12.412 4.58798 15.5833 8.5 15.5833ZM8.5 17C13.1944 17 17 13.1944 17 8.5C17 3.80558 13.1944 0 8.5 0C3.80558 0 0 3.80558 0 8.5C0 13.1944 3.80558 17 8.5 17Z" fill="#A7A7A7"/>
</svg>
